<svg width="107" height="19" viewBox="0 0 107 19" fill="none" xmlns="http://www.w3.org/2000/svg">
<path d="M10.7891 11.0273H4.03906V18H0.523438V0.9375H11.6328V3.78516H4.03906V8.19141H10.7891V11.0273ZM20.1584 18C20.0022 17.6953 19.8889 17.3164 19.8186 16.8633C18.9983 17.7773 17.9319 18.2344 16.6194 18.2344C15.3772 18.2344 14.3459 17.875 13.5256 17.1562C12.7131 16.4375 12.3069 15.5312 12.3069 14.4375C12.3069 13.0938 12.803 12.0625 13.7952 11.3438C14.7952 10.625 16.2366 10.2617 18.1194 10.2539H19.678V9.52734C19.678 8.94141 19.5256 8.47266 19.2209 8.12109C18.9241 7.76953 18.4514 7.59375 17.803 7.59375C17.2327 7.59375 16.7834 7.73047 16.4553 8.00391C16.135 8.27734 15.9748 8.65234 15.9748 9.12891H12.5881C12.5881 8.39453 12.8147 7.71484 13.2678 7.08984C13.7209 6.46484 14.3616 5.97656 15.1897 5.625C16.0178 5.26562 16.9475 5.08594 17.9788 5.08594C19.5413 5.08594 20.7795 5.48047 21.6936 6.26953C22.6155 7.05078 23.0764 8.15234 23.0764 9.57422V15.0703C23.0842 16.2734 23.2522 17.1836 23.5803 17.8008V18H20.1584ZM17.3577 15.6445C17.8577 15.6445 18.3186 15.5352 18.7405 15.3164C19.1623 15.0898 19.4748 14.7891 19.678 14.4141V12.2344H18.4123C16.717 12.2344 15.8147 12.8203 15.7053 13.9922L15.6936 14.1914C15.6936 14.6133 15.842 14.9609 16.1389 15.2344C16.4358 15.5078 16.842 15.6445 17.3577 15.6445ZM30.0434 12.9141L28.8247 14.1328V18H25.438V0H28.8247V9.97266L29.4809 9.12891L32.727 5.32031H36.7934L32.2114 10.6055L37.1919 18H33.3013L30.0434 12.9141ZM43.6198 18.2344C41.7605 18.2344 40.2448 17.6641 39.073 16.5234C37.9089 15.3828 37.3269 13.8633 37.3269 11.9648V11.6367C37.3269 10.3633 37.573 9.22656 38.0652 8.22656C38.5573 7.21875 39.2527 6.44531 40.1511 5.90625C41.0573 5.35938 42.0886 5.08594 43.2448 5.08594C44.9792 5.08594 46.3425 5.63281 47.3347 6.72656C48.3347 7.82031 48.8347 9.37109 48.8347 11.3789V12.7617H40.7605C40.8698 13.5898 41.198 14.2539 41.7448 14.7539C42.2995 15.2539 42.9987 15.5039 43.8425 15.5039C45.1472 15.5039 46.1667 15.0312 46.9011 14.0859L48.5652 15.9492C48.0573 16.668 47.3698 17.2305 46.5027 17.6367C45.6355 18.0352 44.6745 18.2344 43.6198 18.2344ZM43.2331 7.82812C42.5612 7.82812 42.0144 8.05469 41.5925 8.50781C41.1784 8.96094 40.9128 9.60938 40.7956 10.4531H45.5066V10.1836C45.4909 9.43359 45.2878 8.85547 44.8972 8.44922C44.5066 8.03516 43.9519 7.82812 43.2331 7.82812ZM61.9541 11.7773C61.9541 13.8086 61.5205 15.3945 60.6533 16.5352C59.7861 17.668 58.5752 18.2344 57.0205 18.2344C55.6455 18.2344 54.5478 17.707 53.7275 16.6523L53.5752 18H50.5283V0H53.915V6.45703C54.6963 5.54297 55.7236 5.08594 56.997 5.08594C58.5439 5.08594 59.7548 5.65625 60.6298 6.79688C61.5127 7.92969 61.9541 9.52734 61.9541 11.5898V11.7773ZM58.5673 11.5312C58.5673 10.25 58.3642 9.31641 57.958 8.73047C57.5517 8.13672 56.9463 7.83984 56.1416 7.83984C55.0634 7.83984 54.3213 8.28125 53.915 9.16406V14.168C54.3291 15.0586 55.0791 15.5039 56.165 15.5039C57.2588 15.5039 57.9775 14.9648 58.3213 13.8867C58.4853 13.3711 58.5673 12.5859 58.5673 11.5312ZM71.1594 18C71.0031 17.6953 70.8898 17.3164 70.8195 16.8633C69.9992 17.7773 68.9328 18.2344 67.6203 18.2344C66.3781 18.2344 65.3469 17.875 64.5266 17.1562C63.7141 16.4375 63.3078 15.5312 63.3078 14.4375C63.3078 13.0938 63.8039 12.0625 64.7961 11.3438C65.7961 10.625 67.2375 10.2617 69.1203 10.2539H70.6789V9.52734C70.6789 8.94141 70.5266 8.47266 70.2219 8.12109C69.925 7.76953 69.4523 7.59375 68.8039 7.59375C68.2336 7.59375 67.7844 7.73047 67.4562 8.00391C67.1359 8.27734 66.9758 8.65234 66.9758 9.12891H63.5891C63.5891 8.39453 63.8156 7.71484 64.2687 7.08984C64.7219 6.46484 65.3625 5.97656 66.1906 5.625C67.0187 5.26562 67.9484 5.08594 68.9797 5.08594C70.5422 5.08594 71.7805 5.48047 72.6945 6.26953C73.6164 7.05078 74.0773 8.15234 74.0773 9.57422V15.0703C74.0852 16.2734 74.2531 17.1836 74.5812 17.8008V18H71.1594ZM68.3586 15.6445C68.8586 15.6445 69.3195 15.5352 69.7414 15.3164C70.1633 15.0898 70.4758 14.7891 70.6789 14.4141V12.2344H69.4133C67.718 12.2344 66.8156 12.8203 66.7062 13.9922L66.6945 14.1914C66.6945 14.6133 66.843 14.9609 67.1398 15.2344C67.4367 15.5078 67.843 15.6445 68.3586 15.6445ZM79.5561 5.32031L79.6616 6.78516C80.5678 5.65234 81.7827 5.08594 83.3061 5.08594C84.6498 5.08594 85.6498 5.48047 86.3061 6.26953C86.9623 7.05859 87.2983 8.23828 87.3139 9.80859V18H83.9272V9.89062C83.9272 9.17188 83.7709 8.65234 83.4584 8.33203C83.1459 8.00391 82.6264 7.83984 81.8998 7.83984C80.9467 7.83984 80.2319 8.24609 79.7553 9.05859V18H76.3686V5.32031H79.5561ZM94.2575 12.9141L93.0387 14.1328V18H89.652V0H93.0387V9.97266L93.695 9.12891L96.9411 5.32031H101.007L96.4255 10.6055L101.406 18H97.5153L94.2575 12.9141ZM102.408 16.3359C102.408 15.7969 102.588 15.3594 102.947 15.0234C103.314 14.6875 103.771 14.5195 104.318 14.5195C104.873 14.5195 105.33 14.6875 105.689 15.0234C106.057 15.3594 106.24 15.7969 106.24 16.3359C106.24 16.8672 106.06 17.3008 105.701 17.6367C105.342 17.9648 104.881 18.1289 104.318 18.1289C103.764 18.1289 103.307 17.9648 102.947 17.6367C102.588 17.3008 102.408 16.8672 102.408 16.3359Z" fill="white"/>
</svg>
